<svg width="18" height="18" viewBox="0 0 18 18" fill="none" xmlns="http://www.w3.org/2000/svg">
<path d="M9.00001 0.666504C13.6 0.666504 17.3333 4.39984 17.3333 8.99984C17.3333 13.5998 13.6 17.3332 9.00001 17.3332C4.40001 17.3332 0.666672 13.5998 0.666672 8.99984C0.666672 4.39984 4.40001 0.666504 9.00001 0.666504ZM9.00001 2.33317C5.31667 2.33317 2.33334 5.3165 2.33334 8.99984C2.33334 12.6832 5.31667 15.6665 9.00001 15.6665C12.6833 15.6665 15.6667 12.6832 15.6667 8.99984C15.6667 5.3165 12.6833 2.33317 9.00001 2.33317ZM9.00001 4.83317C10.5167 4.83317 11.8442 5.644 12.5733 6.8565L11.145 7.714C10.9202 7.33921 10.6011 7.02988 10.2195 6.81688C9.83789 6.60387 9.40711 6.49462 8.9701 6.50003C8.5331 6.50544 8.10515 6.62531 7.72892 6.84769C7.3527 7.07007 7.04134 7.3872 6.8259 7.76744C6.61046 8.14768 6.49846 8.57776 6.50107 9.01479C6.50369 9.45182 6.62082 9.88053 6.8408 10.2582C7.06077 10.6358 7.3759 10.9492 7.75476 11.167C8.13362 11.3849 8.56297 11.4997 9.00001 11.4998C9.43178 11.5001 9.85627 11.3885 10.232 11.1758C10.6078 10.9632 10.9221 10.6568 11.1442 10.2865L12.5733 11.1432C12.105 11.9254 11.393 12.5323 10.5466 12.871C9.70018 13.2096 8.76602 13.2612 7.88742 13.0179C7.00882 12.7746 6.23429 12.2498 5.68262 11.524C5.13095 10.7982 4.8326 9.9115 4.83334 8.99984C4.83334 6.69984 6.70001 4.83317 9.00001 4.83317Z" fill="black"/>
</svg>
