<svg width="22" height="21" viewBox="0 0 22 21" fill="none" xmlns="http://www.w3.org/2000/svg">
<path d="M16.744 0.0841551C14.0021 0.06163 11.2546 -0.0455798 8.50705 0.0221186C5.3251 0.101141 2.84279 0.292912 0.964098 2.83739C0.473223 4.05029 0.225077 5.46642 0.106544 6.94458C0.0840186 7.33391 0.0613708 7.73444 0.0331837 8.14629C-0.0683639 10.6568 0.100882 13.2464 0.0445077 15.2999C0.309639 16.6483 0.828701 17.8613 1.79913 18.7865C5.01492 21.8499 11.5593 20.8965 15.8469 20.7272C17.9062 19.9769 19.6212 19.3563 20.5407 17.0037C21.2686 15.1532 21.15 12.795 21.2009 10.8092C21.2967 6.72438 21.4773 1.08843 16.744 0.0841551Z" fill="white"/>
<path d="M15.4859 1.53964C20.9639 2.24482 19.3561 10.1828 19.2038 14.0304C19.1191 16.146 18.7412 17.7821 16.5579 18.5154C13.6862 19.4802 9.45494 19.1586 6.52693 18.7299C4.56921 18.4477 3.03468 17.861 2.49309 15.83C1.63554 12.6199 1.87814 8.27576 2.25048 5.00359C2.26181 4.94155 2.27867 4.89638 2.30686 4.85686C2.35757 -0.0399427 12.6368 1.17297 15.4859 1.53964Z" fill="#323232" fill-opacity="0.95"/>
<path d="M17.7594 4.52416C17.7708 3.17573 16.0895 2.74701 15.1868 3.57638C14.9442 3.802 14.8313 4.14616 14.8144 4.5185C14.9047 4.99805 15.1924 5.47194 15.5648 5.74273C16.4393 6.35768 17.7481 5.53963 17.7594 4.52416Z" fill="white"/>
<path d="M15.2601 7.14714C13.3307 4.22478 8.97528 3.937 6.63402 6.52653C5.03745 8.29235 4.92458 11.2317 6.12628 13.3191C6.19398 13.3417 6.25602 13.3812 6.31251 13.4489C8.26457 15.6265 11.627 16.4164 14.0417 14.4418C16.1967 12.676 16.8285 9.52224 15.2601 7.14714Z" fill="white"/>
<path d="M7.5706 11.1533C8.25324 13.0715 10.6792 14.5947 12.6142 13.41C16.5239 11.0179 11.9316 4.51872 8.71015 7.40156C7.5706 8.07289 7.1249 9.89508 7.5706 11.1533Z" fill="#323232" fill-opacity="0.95"/>
</svg>
