<svg width="266" height="802" viewBox="0 0 266 802" fill="none" xmlns="http://www.w3.org/2000/svg">
<path opacity="0.6" d="M135.508 320.636C132.784 310.263 112.081 284.212 84.3842 282.949C56.6873 281.687 37.4225 309.631 41.9435 318.751C30.3504 338.157 53.7465 355.289 74.2666 356.962C98.2397 358.752 118.947 345.017 135.508 320.636Z" fill="white"/>
<path opacity="0.8" d="M168.053 361.032C161.974 356.356 139.087 351.182 122.76 363.523C106.433 375.863 108.106 401.099 114.633 404.276C116.596 420.823 137.306 419.651 149.54 410.886C163.82 400.623 169.431 382.897 168.053 361.032Z" fill="white"/>
<path opacity="0.4" d="M162.098 308.314C165.268 303.103 167.817 283.87 157.383 270.917C144.672 255.177 129.884 254.16 125.763 265.709C113.213 268.028 115.365 284.993 122.879 295.015C131.549 306.283 145.454 310.405 162.098 308.314Z" fill="white"/>
<path d="M360.14 431.765C360.12 431.591 360.067 431.424 359.983 431.271C359.899 431.119 359.787 430.986 359.653 430.879C330.974 405.166 200.513 310.129 86.2979 316.331C86.1211 316.341 85.9486 316.388 85.7902 316.468C85.6317 316.548 85.4904 316.659 85.3745 316.797C85.2585 316.934 85.1701 317.094 85.1143 317.268C85.0585 317.442 85.0365 317.626 85.0494 317.81C85.0617 317.993 85.1089 318.171 85.1883 318.335C85.2677 318.499 85.3777 318.645 85.5117 318.765C85.6457 318.884 85.801 318.975 85.9685 319.032C86.136 319.089 86.3122 319.111 86.4868 319.096C199.773 312.962 329.425 407.33 357.92 432.955C358.057 433.074 358.216 433.164 358.387 433.218C358.557 433.272 358.736 433.289 358.912 433.269C359.089 433.25 359.259 433.193 359.412 433.102C359.565 433.012 359.699 432.89 359.805 432.743C360.035 432.476 360.155 432.125 360.14 431.765Z" fill="#C18888" fill-opacity="0.8"/>
<path d="M173.839 328.972L173.818 328.793C169.594 314.475 160.938 301.949 149.21 293.181C148.915 293.029 148.578 292.992 148.263 293.078C147.947 293.164 147.675 293.367 147.495 293.649C147.316 293.931 147.242 294.272 147.288 294.61C147.333 294.948 147.495 295.259 147.744 295.485C158.826 303.872 167.054 315.724 171.196 329.269C171.29 329.628 171.517 329.936 171.826 330.125C172.135 330.315 172.502 330.37 172.847 330.28C173.124 330.199 173.37 330.03 173.548 329.795C173.726 329.561 173.828 329.273 173.839 328.972Z" fill="#C18888" fill-opacity="0.8"/>
<path opacity="0.7" d="M235.185 331.196C240.803 325.818 252.249 299.242 243.311 279.562C232.272 255.662 211.612 252.916 202.842 266.003C179.994 264.155 179.831 290.91 189.711 305.92C199.988 321.355 213.672 328.002 235.185 331.196Z" fill="white"/>
<path d="M240.374 347.796C238.373 332.264 232.646 317.446 223.723 304.707C223.501 304.418 223.18 304.229 222.829 304.18C222.477 304.132 222.124 304.228 221.844 304.448C221.699 304.553 221.578 304.689 221.488 304.847C221.397 305.005 221.34 305.181 221.319 305.364C221.298 305.547 221.314 305.733 221.366 305.911C221.418 306.088 221.505 306.253 221.621 306.395C231.498 320.683 237.262 337.551 238.229 355C238.252 355.364 238.408 355.709 238.664 355.963C238.921 356.217 239.26 356.361 239.612 356.367C239.791 356.367 239.967 356.33 240.131 356.258C240.295 356.187 240.443 356.082 240.567 355.95C240.691 355.818 240.788 355.661 240.852 355.489C240.917 355.317 240.948 355.133 240.943 354.948C240.865 352.527 240.65 350.122 240.374 347.796Z" fill="#C18888" fill-opacity="0.8"/>
<path opacity="0.4" d="M278.374 401.255C278.883 412.277 265.675 450.008 238.865 459.76C206.131 471.7 183.539 453.171 186.875 431.505C162.943 409.867 187.391 383.725 210.835 379.276C235.093 374.662 254.579 382.245 278.374 401.255Z" fill="white"/>
<path d="M297.273 386.429C297.244 386.118 297.111 385.826 296.897 385.604C296.776 385.469 296.63 385.362 296.468 385.288C296.305 385.214 296.131 385.176 295.955 385.175C295.778 385.175 295.605 385.212 295.444 385.285C295.284 385.358 295.14 385.464 295.022 385.598C269.346 411.801 233.629 417.16 233.287 417.199C233.11 417.219 232.939 417.276 232.785 417.366C232.631 417.457 232.497 417.58 232.391 417.727C232.285 417.874 232.209 418.043 232.168 418.223C232.128 418.402 232.123 418.589 232.154 418.772C232.215 419.136 232.408 419.464 232.693 419.687C232.978 419.911 233.333 420.013 233.685 419.973C234.062 419.931 270.597 414.443 296.92 387.553C297.051 387.403 297.15 387.225 297.211 387.032C297.272 386.838 297.293 386.633 297.273 386.429Z" fill="#C18888" fill-opacity="0.8"/>
<path d="M220.934 346.07C220.887 345.75 220.737 345.454 220.509 345.231C220.281 345.007 219.988 344.869 219.678 344.839C200.9 343.704 166.749 355.207 137.776 379.343C137.639 379.455 137.526 379.593 137.443 379.751C137.359 379.909 137.307 380.084 137.29 380.264C137.272 380.444 137.29 380.627 137.341 380.801C137.392 380.975 137.477 381.138 137.589 381.278C137.695 381.426 137.829 381.55 137.982 381.642C138.136 381.734 138.306 381.792 138.481 381.813C138.656 381.834 138.833 381.817 139.001 381.764C139.169 381.71 139.323 381.621 139.455 381.502C171.262 354.915 204.753 346.629 219.545 347.527C219.896 347.539 220.235 347.41 220.492 347.165C220.748 346.92 220.901 346.58 220.917 346.216L220.934 346.07Z" fill="#C18888" fill-opacity="0.8"/>
<path d="M615.049 723.482L614.986 722.946C583.887 665.999 526.592 617.764 465.998 566.638C371.63 487.025 264.627 396.767 235.2 252.186C235.165 252.004 235.096 251.831 234.997 251.676C234.898 251.52 234.771 251.387 234.623 251.282C234.475 251.178 234.309 251.104 234.134 251.066C233.96 251.028 233.78 251.026 233.606 251.061C233.266 251.145 232.97 251.36 232.78 251.664C232.59 251.968 232.52 252.338 232.583 252.698C262.236 398.304 369.59 488.885 464.343 568.817C524.74 619.748 581.753 667.943 612.642 724.297C612.796 724.581 613.04 724.802 613.331 724.923C613.622 725.044 613.943 725.057 614.239 724.959C614.535 724.862 614.787 724.66 614.954 724.389C615.12 724.117 615.191 723.793 615.152 723.47L615.049 723.482Z" fill="#C18888" fill-opacity="0.8"/>
<path opacity="0.6" d="M258.781 205.988C279.373 172.903 261.268 134.897 249.811 112.777C238.354 90.6565 229.391 112.72 227.921 98.8613C226.451 85.0024 218.317 44.2799 187.974 52.624C169.362 57.8358 179.858 77.1291 161.374 82.2539C142.891 87.3786 168.571 115.073 155.873 120.598C143.175 126.122 149.879 154.793 154.66 169.004C160.684 186.663 183.147 241.464 226.188 227.015C261.055 215.48 258.781 205.988 258.781 205.988Z" fill="white"/>
<path d="M232.578 264.14C256.149 262.826 249.222 242.5 245.05 235.149C266.101 227.53 269.243 206.577 268.835 190.26C269.058 189.337 268.917 188.354 268.444 187.528C267.972 186.702 267.206 186.101 266.316 185.855C265.425 185.61 264.483 185.741 263.696 186.22C262.909 186.699 262.342 187.486 262.12 188.409C256.436 200.525 247.92 208.978 241.695 208.629C239.623 191.159 224.47 180.556 211.567 188.923C196.477 198.767 203.767 216.591 203.767 216.591C197.891 215.922 192.195 213.986 187.044 210.906C181.893 207.826 177.401 203.671 173.855 198.707C173.665 198.274 173.395 197.884 173.061 197.557C172.727 197.231 172.335 196.975 171.908 196.805C171.482 196.634 171.028 196.553 170.574 196.564C170.12 196.575 169.673 196.68 169.26 196.871C168.847 197.063 168.476 197.337 168.167 197.68C167.859 198.022 167.619 198.426 167.461 198.867C167.304 199.308 167.232 199.779 167.25 200.252C167.268 200.725 167.375 201.191 167.566 201.623C176.843 246.737 219.75 244.731 219.75 244.731C219.75 244.731 216.905 264.963 232.578 264.14Z" fill="#C18888" fill-opacity="0.8"/>
<path d="M206.686 80.8211C221.599 116.351 212.233 174.893 212.233 174.893C212.233 174.893 234.319 127.466 206.686 80.8211Z" fill="white"/>
<path d="M197.96 121.499C199.73 157.886 180.46 173.219 187.802 195.163C173.937 165.831 197.96 121.499 197.96 121.499Z" fill="white"/>
</svg>
