<svg width="20" height="16" viewBox="0 0 20 16" fill="none" xmlns="http://www.w3.org/2000/svg">
<path d="M18.8681 1.82413C18.5648 1.95864 18.253 2.07217 17.9344 2.16434C18.3116 1.73775 18.5992 1.2358 18.7747 0.68653C18.8141 0.563411 18.7733 0.428645 18.6721 0.348123C18.571 0.267538 18.4306 0.257885 18.3193 0.323835C17.6427 0.725141 16.9127 1.01354 16.1472 1.18218C15.3762 0.42877 14.329 0 13.2464 0C10.9611 0 9.10196 1.85912 9.10196 4.14428C9.10196 4.32426 9.11335 4.50324 9.1359 4.67973C6.30016 4.43075 3.66383 3.03695 1.85347 0.816251C1.78895 0.737098 1.68956 0.694439 1.5878 0.702598C1.48598 0.710569 1.3945 0.767987 1.34306 0.856232C0.975878 1.48628 0.781763 2.20687 0.781763 2.94005C0.781763 3.93864 1.13829 4.88611 1.76809 5.62645C1.57659 5.56012 1.39076 5.47723 1.2134 5.37878C1.11818 5.32578 1.00197 5.32659 0.907374 5.38083C0.812715 5.43507 0.753366 5.53484 0.750875 5.64388C0.750439 5.66226 0.750439 5.68063 0.750439 5.69925C0.750439 7.18982 1.55268 8.53181 2.7792 9.26324C2.67383 9.25271 2.56852 9.23746 2.4639 9.21747C2.35604 9.19685 2.24512 9.23465 2.17239 9.31692C2.09952 9.39913 2.07542 9.51371 2.10899 9.61834C2.56298 11.0357 3.73184 12.0783 5.14488 12.3962C3.97291 13.1302 2.63267 13.5147 1.22573 13.5147C0.93216 13.5147 0.63691 13.4974 0.347949 13.4633C0.204403 13.4462 0.0671467 13.5309 0.0182601 13.6675C-0.0306266 13.804 0.021187 13.9563 0.14331 14.0346C1.95075 15.1935 4.04067 15.806 6.18701 15.806C10.4065 15.806 13.046 13.8163 14.5173 12.1471C16.3519 10.0658 17.4042 7.31089 17.4042 4.58887C17.4042 4.47515 17.4024 4.36031 17.3989 4.24585C18.1228 3.7005 18.746 3.0405 19.2531 2.28192C19.3301 2.16671 19.3218 2.01444 19.2325 1.90838C19.1434 1.80227 18.9949 1.76795 18.8681 1.82413Z" fill="#323232" fill-opacity="0.95"/>
</svg>
